<svg width="245" height="191" viewBox="0 0 245 191" fill="none" xmlns="http://www.w3.org/2000/svg">
<path d="M211.722 0C221.049 0.0524316 228.929 3.10822 235.684 9.62012C241.958 16.4586 244.686 24.7342 244.684 33.8682C244.686 34.4086 244.688 34.9493 244.69 35.5059C244.696 37.3143 244.698 39.1228 244.701 40.9307C244.704 42.2288 244.708 43.5267 244.712 44.8242C244.725 49.085 244.73 53.3457 244.736 57.6064C244.738 59.0757 244.741 60.5444 244.744 62.0137C244.753 68.1273 244.761 74.2409 244.765 80.3545C244.766 81.939 244.768 83.5243 244.769 85.1094C244.77 85.5026 244.77 85.8964 244.77 86.3018C244.775 92.6724 244.789 99.0434 244.808 105.414C244.827 111.967 244.837 118.521 244.839 125.074C244.841 128.748 244.846 132.423 244.86 136.097C244.874 139.557 244.876 143.018 244.871 146.478C244.87 147.742 244.873 149.007 244.881 150.271C244.951 161.958 243.567 172.074 235.153 180.939C227.042 188.272 217.662 189.874 207.16 189.867C206.404 189.868 205.649 189.871 204.87 189.873C202.778 189.878 200.686 189.877 198.594 189.878C196.336 189.879 194.078 189.884 191.82 189.888C186.884 189.896 181.948 189.899 177.012 189.901C173.929 189.903 170.845 189.905 167.76 189.908C159.216 189.915 150.67 189.921 142.126 189.923H140.469C139.922 189.923 139.374 189.924 138.809 189.924C137.7 189.924 136.59 189.925 135.48 189.925C134.654 189.925 134.653 189.925 133.811 189.925C124.893 189.927 115.975 189.937 107.057 189.951C97.8926 189.964 88.7281 189.972 79.5641 189.973C74.4224 189.973 69.2799 189.976 64.1383 189.986C59.7589 189.995 55.38 189.998 51.0006 189.993C48.7685 189.991 46.5363 189.992 44.3043 190C42.2566 190.007 40.2084 190.007 38.1607 190C37.0787 189.998 35.9967 190.004 34.9146 190.012C25.3485 189.956 17.1661 187.387 10.2008 180.688C9.78605 180.268 9.37175 179.848 8.94492 179.415C8.61369 179.09 8.28204 178.765 7.94102 178.43C0.178829 170.185 0.0457234 159.742 0.0699226 149.152C0.0664658 147.835 0.0618362 146.518 0.0572273 145.201C0.0468568 141.637 0.047911 138.073 0.0513679 134.509C0.0530964 131.528 0.0489654 128.547 0.0455086 125.566C0.036866 118.129 0.0395711 110.692 0.0464851 103.255C0.0522468 96.811 0.0446882 90.3668 0.0308601 83.9229C0.0164566 77.2902 0.0112023 70.6575 0.0152351 64.0254C0.0169636 60.308 0.0158397 56.5904 0.0054695 52.873C-0.0031727 49.3764 -0.000593704 45.8794 0.0103523 42.3828C0.0120807 41.1038 0.0102537 39.8243 0.00449294 38.5459C-0.0248918 31.9055 0.0136824 26.0294 2.60703 19.8154C2.81272 19.2986 3.01805 18.7814 3.23008 18.249C6.49872 10.4311 13.6447 4.91988 21.2604 1.73828C24.2225 0.599189 26.9493 0.154424 30.1217 0.150391C30.7875 0.148087 31.4533 0.145859 32.1393 0.143555C33.2334 0.144131 33.2341 0.143379 34.3502 0.144531C35.1347 0.142803 35.9192 0.141376 36.7037 0.139648C38.8592 0.135039 41.0154 0.134365 43.1715 0.133789C45.4962 0.132637 47.8218 0.128056 50.1471 0.124023C55.2311 0.115957 60.3159 0.112656 65.4 0.110352C68.5756 0.108623 71.7513 0.106396 74.9264 0.103516C83.7216 0.0966016 92.5168 0.0911719 101.312 0.0888672H103.017C103.864 0.088291 103.864 0.0878906 104.727 0.0878906C105.87 0.0878906 107.014 0.0869141 108.157 0.0869141H109.876C119.061 0.0846092 128.246 0.0743748 137.431 0.0605469C146.864 0.0472952 156.298 0.0396389 165.731 0.0390625C171.027 0.0384863 176.322 0.0357617 181.618 0.0253906C186.127 0.0167481 190.637 0.0139453 195.147 0.0185547C197.446 0.020859 199.746 0.0197835 202.046 0.0117188C204.154 0.00422901 206.262 0.00520648 208.371 0.0126953C209.488 0.0138475 210.605 0.00748889 211.722 0ZM35.3326 13.7539C28.3471 13.8069 22.833 15.633 18.1637 20.9678C16.0313 24.0744 14.6393 26.9818 14.6295 30.7861C14.6266 31.2464 14.6246 31.7075 14.6217 32.1816V33.7061C14.6194 34.2424 14.6175 34.7796 14.6158 35.332C14.6095 37.1348 14.6064 38.9375 14.6041 40.7402C14.6006 42.0307 14.5974 43.3218 14.5934 44.6123C14.5813 48.8557 14.5747 53.0994 14.5689 57.3428C14.5666 58.8039 14.5644 60.2654 14.5621 61.7266C14.5523 67.8039 14.5437 73.8817 14.5396 79.959C14.5385 81.5352 14.5379 83.1113 14.5367 84.6875C14.5361 85.0793 14.5363 85.4717 14.5357 85.875C14.5311 92.218 14.5167 98.5613 14.4977 104.904C14.4786 111.421 14.4681 117.939 14.4664 124.456C14.4653 128.113 14.4599 131.77 14.4449 135.427C14.4317 138.869 14.4294 142.311 14.4352 145.753C14.4357 147.014 14.4319 148.275 14.4244 149.536C14.414 151.262 14.4179 152.988 14.4254 154.715C14.4191 155.21 14.4122 155.705 14.4059 156.215C14.4641 161.728 16.6207 166.806 20.4684 170.772C25.7494 175.109 30.4393 175.553 37.0807 175.532C37.828 175.535 38.5751 175.536 39.3443 175.538C41.4109 175.544 43.477 175.543 45.5436 175.541C47.7751 175.54 50.007 175.545 52.2379 175.549C56.6075 175.556 60.9772 175.557 65.3463 175.556C68.8995 175.555 72.4532 175.556 76.0064 175.559C76.7648 175.559 76.7654 175.559 77.5396 175.56C78.5673 175.561 79.595 175.561 80.6227 175.562C90.262 175.568 99.9018 175.567 109.541 175.563C118.351 175.561 127.161 175.567 135.971 175.578C145.024 175.589 154.078 175.594 163.13 175.592C168.21 175.591 173.29 175.592 178.37 175.6C182.696 175.607 187.021 175.607 191.347 175.601C193.552 175.597 195.758 175.597 197.962 175.604C200.358 175.61 202.754 175.605 205.149 175.598C205.839 175.602 206.53 175.606 207.241 175.61C213.798 175.568 219.939 174.633 225.009 170.196C229.397 165.722 230.461 160.267 230.419 154.184C230.421 153.647 230.424 153.109 230.427 152.556C230.435 150.772 230.431 148.987 230.427 147.203C230.431 145.917 230.435 144.632 230.44 143.346C230.45 139.865 230.449 136.385 230.446 132.904C230.444 129.995 230.447 127.084 230.451 124.175C230.459 116.918 230.458 109.662 230.451 102.405C230.445 96.113 230.453 89.8206 230.466 83.5283C230.48 77.0551 230.486 70.5816 230.482 64.1084C230.48 60.4791 230.481 56.8496 230.492 53.2197C230.5 49.8072 230.498 46.395 230.487 42.9824C230.485 41.7321 230.487 40.4817 230.493 39.2314C230.5 37.5205 230.493 35.8106 230.483 34.0996C230.489 33.6093 230.495 33.1186 230.501 32.6133C230.438 27.4364 228.639 22.9231 225.084 19.1377C221.018 15.6542 216.72 13.9864 211.413 13.9766C210.444 13.9725 210.443 13.9728 209.455 13.9688C208.748 13.9693 208.041 13.9688 207.313 13.9688C206.56 13.9664 205.807 13.9652 205.031 13.9629C202.941 13.9571 200.85 13.9549 198.76 13.9531C196.506 13.9508 194.251 13.9456 191.997 13.9404C186.553 13.9289 181.109 13.9232 175.665 13.918C173.1 13.9157 170.535 13.9126 167.97 13.9092C159.442 13.8994 150.914 13.8908 142.386 13.8867C140.174 13.8856 137.962 13.8849 135.75 13.8838C135.2 13.8832 134.649 13.8834 134.083 13.8828C125.177 13.8782 116.271 13.8637 107.365 13.8447C98.2184 13.8257 89.0714 13.8152 79.9244 13.8135C74.7901 13.8123 69.6554 13.8074 64.5211 13.793C60.1486 13.7803 55.776 13.7755 51.4029 13.7812C49.1738 13.7836 46.9441 13.7824 44.7145 13.7715C42.2934 13.7594 39.8724 13.765 37.4508 13.7725C36.752 13.7661 36.0527 13.7602 35.3326 13.7539ZM187.982 131.876C191.476 131.9 193.561 132.103 196.201 134.474C197.664 136.669 197.564 138.483 197.569 141.027C197.583 141.462 197.598 141.898 197.612 142.347C197.624 144.631 197.518 145.737 196.258 147.712C194.472 149.432 193.503 149.528 191.086 149.539C190.492 149.543 189.898 149.547 189.287 149.552C188.633 149.553 187.979 149.554 187.305 149.556C186.275 149.561 186.275 149.562 185.224 149.567C182.944 149.579 180.663 149.585 178.382 149.591C177.598 149.593 176.812 149.596 176.027 149.599C172.339 149.61 168.65 149.617 164.962 149.622C160.704 149.628 156.447 149.643 152.189 149.667C148.899 149.684 145.607 149.693 142.317 149.694C140.352 149.695 138.387 149.7 136.421 149.715C134.228 149.729 132.035 149.729 129.841 149.725C129.191 149.732 128.54 149.74 127.87 149.747C123.466 149.718 123.466 149.718 121.196 148.357C119.198 146.06 119.405 143.84 119.354 140.92C119.333 140.454 119.311 139.989 119.289 139.51C119.251 136.982 119.316 135.953 120.916 133.891C122.987 132.345 124.454 132.096 126.966 132.084C127.541 132.08 128.115 132.076 128.707 132.071C129.336 132.07 129.966 132.069 130.615 132.067C131.278 132.063 131.941 132.06 132.625 132.056C134.825 132.044 137.025 132.038 139.225 132.032C139.976 132.03 140.726 132.027 141.5 132.024C145.061 132.013 148.622 132.006 152.184 132.001C156.293 131.995 160.401 131.98 164.509 131.956C167.687 131.939 170.865 131.93 174.043 131.929C175.94 131.928 177.836 131.921 179.733 131.908C181.85 131.894 183.967 131.894 186.085 131.898C186.71 131.891 187.337 131.883 187.982 131.876ZM52.0992 43.4717C56.4977 39.106 56.4975 39.1052 59.6129 39.584C61.047 40.0634 61.8252 40.7221 62.943 41.7373C63.3457 42.1026 63.7489 42.4679 64.1637 42.8447C66.2269 44.7812 68.2522 46.7522 70.2613 48.7451C70.7217 49.2003 71.1821 49.655 71.6568 50.124C73.1646 51.6145 74.6696 53.1077 76.1744 54.6016C76.6906 55.1143 77.2071 55.627 77.7389 56.1553C79.9064 58.3078 82.0743 60.4612 84.2389 62.6172C87.3277 65.6933 90.4224 68.7639 93.525 71.8262C95.9795 74.2501 98.424 76.6839 100.866 79.1211C101.903 80.153 102.943 81.1819 103.986 82.208C105.441 83.6404 106.885 85.0831 108.327 86.5293C108.759 86.9505 109.191 87.3718 109.637 87.8057C111.392 89.5854 112.53 90.946 113.466 93.2852C113.107 96.3594 111.354 97.7998 109.199 99.9033C108.831 100.284 108.463 100.663 108.084 101.055C106.896 102.28 105.692 103.488 104.484 104.692C104.031 105.146 103.579 105.601 103.112 106.068C101.628 107.554 100.143 109.038 98.6568 110.522C97.6203 111.559 96.5834 112.596 95.5475 113.633C93.3822 115.799 91.2168 117.964 89.0504 120.128C86.5469 122.628 84.0455 125.13 81.5455 127.633C79.1337 130.048 76.7194 132.461 74.3053 134.874C73.2803 135.898 72.2555 136.924 71.2311 137.949C69.8039 139.378 68.3743 140.805 66.9449 142.231C66.5209 142.657 66.0974 143.082 65.6607 143.52C65.2713 143.907 64.882 144.294 64.4811 144.693C64.1435 145.03 63.8069 145.368 63.4596 145.715C61.5444 147.48 60.0618 148.09 57.442 148.014C54.914 147.432 53.3394 145.496 51.5816 143.692C51.1121 143.237 50.6428 142.78 50.1588 142.311C45.9869 138.23 45.987 138.23 45.5318 135.842C46.2845 130.763 52.6569 126.415 56.2193 122.878C57.2841 121.821 58.3469 120.762 59.4088 119.702C61.6599 117.459 63.9128 115.217 66.1656 112.976C68.7884 110.366 71.4106 107.756 74.0299 105.144C75.0762 104.101 76.1244 103.06 77.1725 102.02C77.8119 101.382 78.4506 100.745 79.0895 100.107C79.381 99.8193 79.6721 99.5307 79.9723 99.2334C81.2369 97.9693 82.2738 96.7896 83.2711 95.2939C83.2636 92.4874 82.2692 91.0798 80.3258 89.1162C79.9894 88.7908 79.653 88.4661 79.3063 88.1309C78.9531 87.7782 78.5995 87.4251 78.2359 87.0615C77.0699 85.9007 75.8942 84.7507 74.7184 83.5996C73.9061 82.7943 73.0949 81.9881 72.2838 81.1816C70.1497 79.0613 68.0064 76.9498 65.8619 74.8398C62.8364 71.861 59.8223 68.87 56.8072 65.8809C55.2009 64.289 53.5925 62.7004 51.9811 61.1143C51.2488 60.3918 50.517 59.6687 49.7848 58.9463C49.4483 58.6167 49.1111 58.2862 48.7643 57.9463C46.9576 56.1592 45.9692 55.1504 45.4771 52.6367C45.5338 49.2438 48.4485 47.1211 50.7174 44.915C51.4012 44.2002 51.4016 44.2004 52.0992 43.4717Z" fill="#86AEF6"/>
</svg>
