<svg width="648" height="136" viewBox="0 0 648 136" fill="none" xmlns="http://www.w3.org/2000/svg">
<path d="M151.272 0C157.936 0.0374615 163.566 2.22041 168.392 6.87305C172.875 11.7591 174.823 17.6721 174.822 24.1982C174.824 24.5844 174.825 24.9705 174.827 25.3682C174.831 26.6603 174.833 27.9524 174.835 29.2441C174.837 30.1716 174.84 31.0993 174.842 32.0264C174.851 35.0705 174.856 38.1151 174.86 41.1592C174.862 42.2088 174.863 43.258 174.865 44.3076C174.871 48.6758 174.878 53.044 174.88 57.4121C174.881 58.5441 174.883 59.6762 174.883 60.8086C174.884 61.0897 174.884 61.3714 174.884 61.6611C174.888 66.2128 174.897 70.7647 174.911 75.3164C174.924 79.9983 174.932 84.681 174.933 89.3633C174.934 91.9883 174.938 94.6133 174.948 97.2383C174.958 99.7107 174.96 102.183 174.956 104.655C174.955 105.559 174.958 106.463 174.964 107.366C175.013 115.716 174.024 122.943 168.012 129.277C162.217 134.516 155.516 135.662 148.012 135.657C147.473 135.658 146.932 135.659 146.376 135.66C144.881 135.663 143.387 135.665 141.892 135.665C140.279 135.666 138.665 135.668 137.051 135.671C133.525 135.677 129.999 135.679 126.472 135.681C124.269 135.682 122.066 135.683 119.862 135.686C113.757 135.69 107.651 135.695 101.547 135.696H100.363C99.9718 135.696 99.5798 135.697 99.1764 135.697H96.7975C96.2076 135.698 96.2074 135.698 95.6061 135.698C89.2345 135.7 82.8624 135.707 76.4909 135.717C69.9429 135.726 63.3948 135.731 56.8473 135.731C53.1736 135.732 49.4995 135.735 45.8258 135.742C42.6968 135.748 39.5681 135.75 36.4391 135.747C34.8444 135.745 33.2496 135.745 31.6549 135.751C30.1919 135.756 28.7283 135.756 27.2653 135.751C26.4922 135.75 25.719 135.754 24.9459 135.76C18.1111 135.72 12.2653 133.885 7.2887 129.099C6.99231 128.798 6.69628 128.498 6.39124 128.188C6.15453 127.956 5.91717 127.724 5.67347 127.484C0.127684 121.594 0.032155 114.132 0.0494447 106.566C0.0469754 105.626 0.0439478 104.685 0.0406557 103.744C0.0332462 101.198 0.0342799 98.6509 0.0367494 96.1045C0.0379844 93.975 0.0353131 91.8447 0.0328432 89.7148C0.0266682 84.4011 0.0279032 79.0872 0.0328432 73.7734C0.0369593 69.1696 0.0319802 64.5658 0.022101 59.9619C0.0118097 55.223 0.00847763 50.4836 0.0113588 45.7451C0.0125938 43.0891 0.0109563 40.4324 0.00354631 37.7764C-0.00262824 35.278 -0.00036892 32.7796 0.00745256 30.2812C0.00868736 29.3674 0.00766282 28.4535 0.00354631 27.54C-0.0174484 22.7956 0.0100222 18.597 1.86292 14.1572C2.0098 13.7882 2.15683 13.4192 2.30823 13.0391C4.64356 7.4533 9.74881 3.51542 15.1901 1.24219C17.3064 0.428341 19.2546 0.110315 21.5211 0.107422C21.997 0.105775 22.4732 0.104186 22.9635 0.102539C23.7451 0.102951 23.7453 0.102692 24.5426 0.103516C25.1032 0.102281 25.6637 0.100844 26.2242 0.0996094C27.7643 0.0963161 29.3049 0.0951382 30.8453 0.0947266C32.5062 0.0939031 34.1675 0.0917485 35.8287 0.0888672C39.4613 0.0831039 43.0947 0.0807482 46.7272 0.0791016C48.9962 0.0778666 51.2652 0.076277 53.5338 0.0742188C59.8178 0.0692789 66.1014 0.0651233 72.3854 0.0634766H73.6041C74.2089 0.0630649 74.2091 0.0625 74.8258 0.0625H77.276C77.6813 0.0624999 78.0863 0.0615236 78.5035 0.0615234C85.0663 0.0598768 91.6293 0.0528486 98.192 0.0429688C104.932 0.0335007 111.672 0.0287322 118.412 0.0283203C122.195 0.0279087 125.979 0.0249876 129.762 0.0175781C132.984 0.0114032 136.207 0.009402 139.429 0.0126953C141.072 0.0143415 142.715 0.0145513 144.358 0.00878906C145.864 0.00343742 147.371 0.00343742 148.878 0.00878906C149.676 0.00961187 150.474 0.00535133 151.272 0ZM25.2448 9.82617C20.2537 9.86405 16.3133 11.1698 12.9772 14.9814C11.4538 17.2009 10.4598 19.2781 10.4528 21.9961C10.4507 22.325 10.449 22.6544 10.4469 22.9932V24.082C10.4453 24.4653 10.4442 24.8494 10.443 25.2441C10.4385 26.5321 10.4368 27.8204 10.4352 29.1084C10.4327 30.0304 10.4293 30.953 10.4264 31.875C10.4178 34.9069 10.4139 37.9388 10.4098 40.9707C10.4081 42.0147 10.4056 43.0586 10.4039 44.1025C10.3969 48.4446 10.3912 52.7868 10.3883 57.1289C10.3875 58.2552 10.3872 59.3815 10.3864 60.5078C10.3859 60.7876 10.3858 61.0674 10.3854 61.3555C10.3821 65.8875 10.3716 70.4201 10.358 74.9521C10.3445 79.6083 10.3368 84.2648 10.3356 88.9209C10.3348 91.534 10.3316 94.1471 10.3209 96.7598C10.3115 99.219 10.31 101.678 10.3141 104.138C10.3145 105.039 10.3116 105.94 10.3063 106.841C10.2989 108.074 10.3009 109.307 10.3063 110.541C10.3018 110.895 10.2981 111.248 10.2936 111.612C10.3352 115.552 11.8755 119.179 14.6246 122.014C18.3979 125.112 21.7486 125.429 26.4938 125.414C27.0277 125.416 27.5614 125.417 28.111 125.419C29.5875 125.423 31.0641 125.423 32.5407 125.421C34.1349 125.42 35.7291 125.424 37.3229 125.427C40.4449 125.432 43.5674 125.433 46.6891 125.432C49.2277 125.431 51.7667 125.432 54.3053 125.434C54.847 125.434 54.8472 125.433 55.4 125.434C56.1343 125.434 56.8689 125.435 57.6032 125.436C64.4902 125.44 71.3777 125.439 78.2643 125.437C84.5594 125.434 90.8544 125.439 97.1491 125.447C103.617 125.455 110.085 125.458 116.553 125.457C120.183 125.456 123.812 125.457 127.442 125.463C130.533 125.468 133.624 125.469 136.714 125.464C138.29 125.461 139.866 125.461 141.441 125.466C143.153 125.471 144.865 125.466 146.576 125.461C147.069 125.464 147.562 125.467 148.07 125.471C152.755 125.441 157.143 124.772 160.765 121.603C163.9 118.406 164.66 114.507 164.63 110.161C164.632 109.778 164.634 109.394 164.636 108.998C164.642 107.724 164.639 106.448 164.636 105.174C164.639 104.255 164.642 103.337 164.645 102.418C164.653 99.9313 164.653 97.4447 164.65 94.958C164.649 92.8791 164.65 90.7996 164.653 88.7207C164.659 83.5358 164.658 78.3509 164.653 73.166C164.649 68.6704 164.654 64.1743 164.664 59.6787C164.674 55.0538 164.678 50.4286 164.675 45.8037C164.674 43.2107 164.675 40.6178 164.682 38.0244C164.688 35.5862 164.686 33.1482 164.678 30.71C164.677 29.8166 164.679 28.9236 164.683 28.0303C164.689 26.8077 164.684 25.5859 164.676 24.3633C164.681 24.013 164.684 23.6627 164.688 23.3018C164.643 19.603 163.358 16.3785 160.818 13.6738C157.913 11.1849 154.843 9.99333 151.05 9.98633C150.358 9.98345 150.358 9.98335 149.652 9.98047C149.147 9.98088 148.642 9.98047 148.122 9.98047C147.584 9.97882 147.045 9.97723 146.491 9.97559C144.997 9.97147 143.504 9.96998 142.011 9.96875C140.401 9.9671 138.789 9.96367 137.178 9.95996C133.289 9.95173 129.399 9.94804 125.509 9.94434C123.677 9.94269 121.844 9.93997 120.011 9.9375C113.918 9.9305 107.825 9.92476 101.732 9.92188C100.152 9.92105 98.5714 9.92075 96.9909 9.91992C96.5983 9.91951 96.2049 9.91936 95.8004 9.91895C89.4373 9.91565 83.0737 9.90519 76.7106 9.8916C70.1754 9.87802 63.6397 9.87038 57.1041 9.86914C53.4358 9.86832 49.7675 9.86478 46.0992 9.85449C42.9751 9.84544 39.8507 9.84256 36.7262 9.84668C35.1337 9.84833 33.5408 9.84669 31.9479 9.83887C30.2182 9.83022 28.4885 9.83449 26.7584 9.83984C26.2592 9.83532 25.7592 9.8307 25.2448 9.82617ZM134.309 94.2227C136.806 94.2399 138.296 94.3851 140.182 96.0791C141.228 97.6474 141.157 98.9435 141.16 100.762C141.17 101.072 141.18 101.384 141.19 101.704C141.199 103.336 141.124 104.127 140.223 105.538C138.947 106.767 138.255 106.835 136.528 106.843C136.104 106.846 135.679 106.848 135.242 106.852C134.775 106.853 134.307 106.854 133.826 106.855C133.09 106.86 133.09 106.859 132.339 106.863C130.71 106.872 129.081 106.876 127.451 106.88C126.89 106.882 126.329 106.884 125.768 106.886C123.133 106.894 120.497 106.899 117.862 106.902C114.82 106.906 111.779 106.917 108.737 106.934C106.386 106.946 104.034 106.953 101.683 106.954C100.279 106.955 98.8745 106.958 97.4703 106.969C95.9032 106.979 94.3363 106.978 92.7692 106.976C92.3044 106.981 91.8397 106.987 91.361 106.992C88.2146 106.971 88.2144 106.97 86.5924 105.998C85.165 104.357 85.3122 102.771 85.276 100.685C85.2608 100.352 85.2448 100.019 85.2291 99.6768C85.2024 97.8704 85.2495 97.1354 86.3922 95.6621C87.8721 94.5577 88.9202 94.3807 90.7155 94.3721C91.1259 94.3692 91.5359 94.3656 91.9586 94.3623C92.4086 94.3611 92.8584 94.3606 93.3219 94.3594C93.7961 94.3565 94.2703 94.3544 94.7584 94.3516C96.3303 94.3433 97.9018 94.3381 99.4733 94.334C100.01 94.3323 100.546 94.3312 101.099 94.3291C103.644 94.3213 106.188 94.3158 108.733 94.3125C111.668 94.3084 114.604 94.2972 117.539 94.2803C119.809 94.2679 122.08 94.262 124.35 94.2607C125.706 94.2599 127.061 94.2556 128.416 94.2461C129.929 94.2358 131.442 94.2354 132.955 94.2383C133.402 94.2329 133.848 94.228 134.309 94.2227ZM37.2242 31.0596C40.3668 27.9405 40.3666 27.9401 42.5924 28.2822C43.6169 28.6247 44.1728 29.0951 44.9713 29.8203C45.2591 30.0813 45.547 30.3431 45.8434 30.6123C47.3175 31.9959 48.7644 33.4042 50.1998 34.8281C50.5286 35.1532 50.8578 35.4775 51.1969 35.8125C52.2742 36.8774 53.3502 37.9443 54.4254 39.0117C54.7943 39.3781 55.1636 39.7446 55.5436 40.1221C57.0922 41.6599 58.6406 43.1989 60.1871 44.7393C62.394 46.937 64.6052 49.1305 66.8219 51.3184C68.5756 53.0502 70.3224 54.7889 72.067 56.5303C72.808 57.2676 73.5514 58.0032 74.2965 58.7363C75.3359 59.7596 76.3672 60.791 77.3971 61.8242C77.7062 62.1251 78.015 62.4254 78.3336 62.7354C79.5871 64.007 80.4006 64.979 81.07 66.6504C80.8134 68.8469 79.5597 69.876 78.0201 71.3789C77.7571 71.6505 77.4951 71.9223 77.2242 72.2021C76.3758 73.0778 75.5152 73.94 74.652 74.8008C74.3284 75.1252 74.005 75.4499 73.6715 75.7842C72.6115 76.8458 71.5496 77.9054 70.4879 78.9658C69.7474 79.7063 69.0073 80.4476 68.2672 81.1885C66.7202 82.7359 65.1725 84.2829 63.6246 85.8291C61.836 87.6153 60.0485 89.4032 58.2623 91.1914C56.5392 92.917 54.8143 94.6413 53.0895 96.3652C52.3572 97.0971 51.625 97.8298 50.8932 98.5625C49.8736 99.5833 48.8519 100.602 47.8307 101.621C47.5277 101.925 47.2257 102.229 46.9137 102.542C46.6354 102.819 46.3574 103.096 46.0709 103.381C45.8297 103.622 45.5887 103.863 45.3405 104.111C43.9722 105.372 42.9133 105.808 41.0416 105.753C39.2352 105.337 38.1101 103.954 36.8541 102.665C36.5187 102.34 36.1832 102.014 35.8375 101.679C32.8567 98.7634 32.8571 98.7629 32.5319 97.0566C33.0695 93.4279 37.6223 90.3211 40.1676 87.7939C40.9284 87.0385 41.6882 86.2824 42.4469 85.5254C44.0553 83.9224 45.6645 82.3201 47.2741 80.7188C49.148 78.8543 51.0218 76.9895 52.8932 75.123C53.6407 74.3784 54.3895 73.634 55.1383 72.8906C55.5952 72.4354 56.052 71.98 56.5084 71.5244C56.7166 71.3187 56.9249 71.1127 57.1393 70.9004C58.0427 69.9974 58.7833 69.1544 59.4957 68.0859C59.4904 66.0807 58.7798 65.0748 57.3912 63.6719C57.1509 63.4394 56.9105 63.2073 56.6627 62.9678C56.4104 62.7158 56.1578 62.4639 55.8981 62.2041C55.065 61.3748 54.2254 60.5528 53.3854 59.7305C52.8049 59.155 52.2248 58.5783 51.6451 58.002C50.1204 56.4871 48.5894 54.9791 47.0573 53.4717C44.8956 51.3434 42.7418 49.206 40.5875 47.0703C39.4399 45.933 38.2906 44.7982 37.1393 43.665C36.6161 43.1488 36.0931 42.6324 35.57 42.1162C35.3295 41.8807 35.0893 41.6442 34.8414 41.4014C33.5506 40.1245 32.8444 39.4042 32.4928 37.6084C32.5331 35.1841 34.6158 33.6671 36.2369 32.0908C36.7254 31.5802 36.7258 31.5802 37.2242 31.0596Z" fill="#86AEF6"/>
<path d="M635.705 12.077C636.32 12.0758 636.935 12.0741 637.568 12.0729C638.536 12.0792 638.536 12.0793 639.522 12.0862C640.167 12.0816 640.812 12.0775 641.476 12.0729C642.091 12.0741 642.706 12.0758 643.339 12.077C643.905 12.0787 644.472 12.0798 645.055 12.081C646.436 12.2302 646.436 12.2302 647.589 13.3826C647.729 14.5528 647.729 14.5528 647.721 15.9753C647.721 16.4864 647.719 16.9974 647.718 17.5241C647.707 18.3261 647.707 18.3261 647.697 19.1443C647.696 19.679 647.696 20.2137 647.696 20.7645C647.669 24.7441 647.669 24.7441 647.012 26.0583C644.528 26.075 642.043 26.0854 639.558 26.0941C638.849 26.0992 638.139 26.1039 637.408 26.109C636.734 26.1108 636.059 26.1125 635.365 26.1148C634.428 26.1194 634.428 26.1194 633.472 26.124C632.032 26.0583 632.032 26.0583 631.456 25.4822C631.311 23.4817 631.349 21.4737 631.347 19.4681C631.341 18.9034 631.334 18.3388 631.326 17.7568C631.324 16.9473 631.324 16.9473 631.323 16.1217C631.32 15.6245 631.318 15.1272 631.316 14.615C631.625 11.8914 633.412 12.0827 635.705 12.077Z" fill="#86AEF6"/>
<path d="M635.046 36.2894C635.828 36.2929 635.828 36.2929 636.626 36.2969C637.191 36.2975 637.757 36.2986 638.339 36.2998C638.932 36.3073 639.524 36.3142 640.134 36.3211C640.729 36.3217 641.323 36.3222 641.936 36.3222C646.356 36.3487 646.356 36.3487 647.012 37.0056C647.069 37.8059 647.085 38.6091 647.086 39.4117C647.087 39.9302 647.089 40.4488 647.09 40.9835C647.089 41.5567 647.088 42.13 647.087 42.7212C647.088 43.3216 647.089 43.9219 647.09 44.5407C647.093 46.5366 647.091 48.5319 647.089 50.5277C647.089 51.9077 647.09 53.2876 647.091 54.6675C647.091 57.564 647.09 60.461 647.087 63.3574C647.085 67.0794 647.086 70.8015 647.09 74.5236C647.091 77.3751 647.091 80.2259 647.09 83.0768C647.089 84.4493 647.09 85.8223 647.091 87.1953C647.093 89.1105 647.09 91.0251 647.087 92.9403C647.088 93.5136 647.089 94.0875 647.09 94.6781C647.089 95.1972 647.087 95.7157 647.086 96.2499C647.086 96.7033 647.085 97.1568 647.085 97.624C647.012 98.656 647.012 98.656 646.436 99.2321C645.459 99.2892 644.48 99.3076 643.501 99.3088C642.908 99.3093 642.314 99.3099 641.703 99.3111C640.766 99.3076 640.766 99.3076 639.81 99.3042C639.186 99.3065 638.561 99.3088 637.918 99.3111C637.324 99.3099 636.731 99.3093 636.119 99.3088C635.571 99.3082 635.022 99.3076 634.457 99.3065C633.184 99.2321 633.184 99.2321 632.608 98.656C632.551 97.8643 632.533 97.0698 632.531 96.2758C632.529 95.763 632.526 95.2496 632.524 94.7213C632.524 94.1538 632.524 93.5868 632.525 93.0026C632.522 92.4085 632.521 91.8145 632.518 91.2026C632.513 89.2287 632.512 87.2541 632.511 85.2801C632.51 83.9146 632.507 82.5491 632.506 81.183C632.502 78.3159 632.501 75.4489 632.502 72.5819C632.502 68.9001 632.494 65.2178 632.484 61.5361C632.477 58.714 632.476 55.8925 632.476 53.0704C632.476 51.7124 632.473 50.3543 632.469 48.9969C632.463 47.1013 632.465 45.2057 632.468 43.3101C632.465 42.7437 632.462 42.1779 632.458 41.5948C632.461 41.0797 632.463 40.5652 632.466 40.0351C632.465 39.5862 632.465 39.138 632.465 38.6759C632.69 36.9566 633.364 36.4726 635.046 36.2894Z" fill="#86AEF6"/>
<path d="M568.041 36.3211C568.633 36.3142 569.225 36.3073 569.836 36.2998C570.684 36.298 570.684 36.298 571.549 36.2963C572.071 36.294 572.592 36.2917 573.129 36.2894C574.415 36.4294 574.415 36.4294 575.567 37.5817C575.712 39.2642 575.712 39.2641 575.714 41.4473C575.716 41.8448 575.718 42.2424 575.72 42.6515C575.724 43.5163 575.726 44.3806 575.725 45.2454C575.724 46.6167 575.732 47.988 575.742 49.3593C575.769 53.2588 575.783 57.1577 575.787 61.0579C575.789 63.4426 575.803 65.8274 575.824 68.2122C575.83 69.1185 575.831 70.0248 575.828 70.9311C575.707 78.4617 575.707 78.4617 579.494 84.7357C579.826 84.9442 580.159 85.1528 580.5 85.3677C580.834 85.5872 581.167 85.8062 581.511 86.032C585.193 88.0227 590.639 87.775 594.581 86.6307C598.97 84.5899 601.751 81.6883 603.422 77.1307C604.251 73.7878 604.066 70.306 604.074 66.8807C604.082 66.0377 604.092 65.1942 604.101 64.3513C604.125 62.1445 604.139 59.9383 604.152 57.7316C604.172 54.1882 604.207 50.6447 604.243 47.1012C604.254 45.8648 604.26 44.6283 604.267 43.3918C604.273 42.6457 604.279 41.899 604.285 41.1304C604.29 40.1417 604.29 40.1417 604.296 39.1328C604.376 37.5817 604.376 37.5817 604.952 36.4294C607.04 36.4127 609.129 36.4023 611.218 36.3931C612.11 36.3862 612.11 36.3862 613.021 36.3787C613.589 36.377 614.157 36.3752 614.742 36.3729C615.53 36.3683 615.53 36.3683 616.333 36.3637C617.628 36.4294 617.628 36.4294 618.78 37.0056C618.793 45.0339 618.804 53.0618 618.81 61.0901C618.813 64.818 618.817 68.5452 618.823 72.2725C618.83 75.8666 618.833 79.4602 618.835 83.0544C618.836 84.4285 618.838 85.8033 618.841 87.1775C618.845 89.0955 618.846 91.013 618.845 92.9311C618.847 93.5056 618.85 94.08 618.851 94.6717C618.851 95.1914 618.85 95.7106 618.849 96.2464C618.85 96.7004 618.85 97.1544 618.851 97.6223C618.78 98.6559 618.78 98.6559 618.204 99.2321C617.269 99.2892 616.331 99.3076 615.395 99.3087C614.827 99.3093 614.26 99.3099 613.676 99.3111C613.078 99.3088 612.481 99.3064 611.866 99.3041C610.97 99.3076 610.97 99.3076 610.056 99.3111C609.489 99.3099 608.922 99.3093 608.337 99.3087C607.813 99.3082 607.288 99.307 606.748 99.3065C605.528 99.2321 605.528 99.2321 604.952 98.6559C604.816 97.3982 604.713 96.1369 604.627 94.8745C604.58 94.1849 604.531 93.4946 604.481 92.7836C604.447 92.2501 604.411 91.716 604.376 91.1657C604.145 91.4584 603.914 91.7511 603.676 92.0524C599.682 96.8883 594.935 100.301 588.594 101.144C587.176 101.233 585.775 101.259 584.354 101.249C583.852 101.246 583.352 101.245 582.836 101.242C577.232 101.099 571.837 99.477 567.501 95.7751C562.569 90.3066 561.067 84.6469 561.088 77.3727C561.087 76.9348 561.086 76.497 561.085 76.0452C561.083 74.6112 561.084 73.1765 561.086 71.7424C561.086 70.7422 561.085 69.7414 561.084 68.7411C561.084 66.6519 561.085 64.5627 561.088 62.4735C561.091 59.7897 561.089 57.1065 561.086 54.4227C561.083 52.3605 561.084 50.2984 561.086 48.2363C561.086 47.2464 561.086 46.256 561.084 45.2661C561.083 43.8879 561.085 42.5103 561.088 41.1321C561.087 40.7207 561.086 40.3088 561.084 39.8847C561.106 35.0777 563.926 36.324 568.041 36.3211Z" fill="#86AEF6"/>
<path d="M500.88 36.821C508.424 33.3634 520.083 34.0286 526.964 38.5925C528.683 39.8888 530.256 41.2457 531.778 42.7673C531.82 42.2257 531.821 42.2255 531.864 41.6735C531.906 41.2024 531.949 40.7317 531.994 40.2468C532.034 39.779 532.074 39.311 532.116 38.8288C532.354 37.582 532.354 37.5816 533.506 36.4294C534.792 36.2894 534.792 36.2891 536.372 36.2966C536.937 36.2977 537.503 36.2989 538.085 36.2995C538.678 36.307 539.27 36.3145 539.88 36.322C540.474 36.322 541.069 36.3224 541.682 36.3229C546.101 36.3489 546.102 36.3488 546.758 37.0055C546.817 37.7914 546.836 38.5807 546.839 39.3688C546.842 39.878 546.846 40.3874 546.849 40.9128C546.85 41.758 546.85 41.7588 546.851 42.6208C546.856 43.506 546.856 43.5065 546.86 44.4098C546.869 46.3749 546.873 48.3393 546.875 50.3044C546.879 51.6693 546.882 53.0351 546.885 54.4001C546.892 57.2698 546.895 60.1397 546.897 63.0095C546.9 66.6739 546.914 70.3392 546.93 74.0036C546.941 76.8273 546.944 79.6516 546.945 82.4753C546.947 83.8252 546.952 85.1752 546.959 86.5251C547.015 97.1024 546.84 106.46 539.196 114.645C530.911 122.364 521.306 123.976 510.392 123.647C502.926 123.263 492.351 121.325 487.064 115.498C486.693 113.4 487.549 111.684 488.349 109.784C488.5 109.387 488.651 108.99 488.806 108.581C489.935 105.808 489.935 105.808 491.302 104.902C493.349 105.048 495.032 105.98 496.847 106.867C505.445 110.827 514.147 112.26 523.242 109.096C527.072 107.572 528.726 105.851 530.637 102.296C531.966 99.1543 531.848 96.0672 531.814 92.7145C531.811 92.2329 531.809 91.7512 531.806 91.2546C531.799 90.0728 531.789 88.891 531.778 87.7087C531.551 87.9771 531.324 88.2462 531.09 88.5221C527.661 92.4762 522.028 95.6921 516.797 96.3512C507.405 96.8865 499.848 95.4524 492.305 89.4372C485.662 83.3114 482.958 75.2728 482.573 66.4079C482.404 57.2262 485.671 49.5002 491.874 42.8259C494.194 40.6659 496.726 39.0757 499.512 37.5817C499.964 37.3305 500.415 37.0796 500.88 36.821ZM526.309 50.6579C518.579 45.4321 509.165 45.9266 502.463 52.3259C498.575 56.7445 497.438 60.9921 497.556 66.7175C497.78 71.8275 499.589 75.9706 503.33 79.5348C507.272 82.7204 511.667 83.9695 516.687 83.8122C521.977 83.2371 526.085 80.7859 529.473 76.7614C532.787 72.6187 534.037 67.6037 533.506 62.3571C532.554 57.5749 530.059 53.7156 526.309 50.6579Z" fill="#86AEF6"/>
<path d="M420.293 37.2217C423.68 39.4296 426.141 41.7988 427.491 45.6482C427.871 45.2558 428.251 44.864 428.643 44.4601C429.217 43.8937 429.794 43.3297 430.372 42.7673C430.864 42.2781 430.864 42.2781 431.366 41.7792C436.545 36.9094 442.187 35.1659 449.133 35.0973C449.682 35.0806 450.23 35.0639 450.795 35.0466C457.063 34.9907 461.472 37.02 465.98 41.3292C470.078 45.9801 471.468 51.7504 471.42 57.8307C471.421 58.2744 471.422 58.7187 471.423 59.1756C471.425 60.6258 471.419 62.0754 471.413 63.525C471.412 64.538 471.412 65.5503 471.412 66.5626C471.411 68.676 471.406 70.7889 471.399 72.9017C471.389 75.6155 471.387 78.3292 471.387 81.043C471.387 83.1293 471.384 85.2156 471.38 87.3019C471.377 88.3033 471.376 89.3047 471.376 90.3061C471.375 91.6993 471.37 93.0925 471.364 94.4857C471.364 94.9017 471.364 95.3182 471.365 95.7469C471.346 98.5903 471.346 98.5903 470.704 99.2322C468.703 99.3768 466.695 99.3387 464.69 99.3405C463.843 99.3508 463.843 99.3508 462.979 99.3618C462.169 99.3635 462.169 99.3635 461.343 99.3653C460.846 99.3676 460.349 99.3699 459.837 99.3722C458.604 99.2321 458.604 99.2322 457.452 98.0798C457.307 96.3755 457.307 96.3755 457.305 94.1613C457.301 93.5569 457.301 93.5569 457.299 92.9398C457.295 92.0628 457.293 91.1865 457.293 90.3095C457.294 88.9187 457.287 87.5284 457.277 86.1375C457.25 82.1832 457.236 78.2284 457.232 74.2741C457.229 71.8553 457.216 69.4372 457.195 67.0184C457.189 66.0994 457.188 65.1804 457.191 64.2608C457.263 56.5015 457.263 56.5015 453.238 50.0415C449.572 47.8244 445.395 47.2701 441.238 48.2409C437.581 49.4693 434.873 51.4318 433.072 54.9032C431.747 57.7288 431.449 60.1372 431.424 63.2635C431.418 63.8258 431.418 63.8258 431.412 64.3997C431.404 65.2109 431.397 66.0228 431.392 66.834C431.382 68.1172 431.369 69.4003 431.354 70.684C431.314 74.3312 431.279 77.9789 431.249 81.6261C431.231 83.8593 431.207 86.092 431.18 88.3252C431.171 89.1762 431.164 90.0278 431.159 90.8794C431.152 92.0669 431.138 93.2544 431.123 94.4419C431.117 95.1183 431.11 95.7947 431.105 96.4913C430.948 98.0798 430.948 98.0798 429.796 99.2322C428.625 99.3814 428.625 99.3814 427.203 99.3854C426.692 99.3866 426.181 99.3883 425.654 99.3895C425.119 99.3854 424.585 99.3808 424.034 99.3762C423.499 99.3808 422.965 99.3854 422.413 99.3895C421.647 99.3877 421.647 99.3877 420.865 99.3854C420.395 99.3837 419.926 99.3825 419.442 99.3814C418.272 99.2321 418.272 99.2322 417.12 98.0798C416.975 96.4487 416.975 96.4487 416.973 94.3381C416.971 93.9538 416.968 93.5695 416.967 93.1737C416.963 92.3371 416.961 91.5011 416.961 90.665C416.962 89.3364 416.955 88.0089 416.945 86.6808C416.918 82.904 416.904 79.1278 416.9 75.351C416.897 73.0405 416.884 70.7307 416.863 68.4208C416.857 67.5439 416.856 66.6675 416.859 65.7912C416.907 57.931 416.907 57.931 413.466 51.0435C410.636 48.4201 407.13 47.6919 403.357 47.8088C400.299 48.1707 397.767 49.0487 395.333 50.942C392.161 55.0202 391.137 58.7734 391.083 63.914C391.076 64.4781 391.076 64.478 391.068 65.0536C391.058 65.8655 391.05 66.6767 391.042 67.4886C391.03 68.7717 391.014 70.0548 390.998 71.3379C390.958 74.5219 390.923 77.7052 390.889 80.8892C390.86 83.5856 390.828 86.2821 390.793 88.9786C390.778 90.245 390.766 91.512 390.754 92.779C390.744 93.5499 390.735 94.3214 390.725 95.0924C390.714 96.1064 390.714 96.1064 390.703 97.1407C390.616 98.656 390.616 98.656 390.04 99.2322C389.105 99.2892 388.167 99.3076 387.231 99.3088C386.663 99.3094 386.096 99.31 385.512 99.3111C384.914 99.3088 384.317 99.3065 383.702 99.3042C382.806 99.3076 382.806 99.3077 381.892 99.3111C381.325 99.31 380.758 99.3094 380.173 99.3088C379.649 99.3082 379.124 99.3077 378.584 99.3065C377.364 99.2322 377.364 99.2322 376.788 98.656C376.731 97.8557 376.715 97.0525 376.715 96.2499C376.713 95.7313 376.711 95.2128 376.709 94.6781C376.711 94.1048 376.712 93.5315 376.713 92.9404C376.712 92.34 376.711 91.7396 376.71 91.1208C376.708 89.125 376.709 87.1297 376.711 85.1338C376.711 83.7539 376.71 82.374 376.709 80.994C376.709 78.0976 376.71 75.2006 376.713 72.3042C376.716 68.5821 376.714 64.86 376.711 61.138C376.708 58.2871 376.709 55.4356 376.711 52.5847C376.711 51.2123 376.711 49.8392 376.709 48.4662C376.708 46.551 376.71 44.6364 376.713 42.7212C376.712 42.1479 376.711 41.5741 376.709 40.9835C376.711 40.4644 376.713 39.9458 376.715 39.4117C376.715 38.9583 376.715 38.5048 376.715 38.0375C376.788 37.0056 376.788 37.0056 377.364 36.4294C378.256 36.3724 379.152 36.3539 380.047 36.3528C380.859 36.3516 380.859 36.3516 381.688 36.3505C382.257 36.3528 382.827 36.3551 383.414 36.3574C384.268 36.3539 384.268 36.3539 385.14 36.3505C385.682 36.3516 386.223 36.3522 386.781 36.3528C387.281 36.3534 387.781 36.3539 388.296 36.3551C389.464 36.4294 389.464 36.4294 390.04 37.0056C390.175 38.1672 390.278 39.3327 390.364 40.4989C390.436 41.4536 390.436 41.4536 390.51 42.4274C390.545 42.92 390.58 43.4121 390.616 43.9197C390.834 43.627 391.051 43.3343 391.275 43.0329C398.009 34.6116 410.65 32.4135 420.293 37.2217Z" fill="#424A52"/>
<path d="M317.341 38.429C329.268 33.3911 344.774 32.8846 355.469 41.0383C359.058 44.3028 361.443 48.3582 362.384 53.138C362.438 54.6204 362.462 56.0877 362.458 57.5696C362.459 58.2339 362.46 58.2342 362.462 58.9124C362.464 60.3746 362.461 61.8373 362.46 63.3001C362.46 64.3159 362.461 65.3321 362.462 66.3479C362.462 68.4745 362.462 70.6012 362.459 72.7278C362.456 75.46 362.457 78.1919 362.461 80.9241C362.463 83.0201 362.462 85.1162 362.461 87.2122C362.46 88.2204 362.461 89.228 362.462 90.2356C362.463 91.6397 362.461 93.0445 362.458 94.4485C362.459 94.8685 362.46 95.2888 362.462 95.721C362.449 98.59 362.449 98.5901 361.807 99.2317C360.957 99.2887 360.103 99.3077 359.251 99.3089C358.478 99.31 358.478 99.3097 357.689 99.3108C356.876 99.3074 356.875 99.3074 356.046 99.304C355.232 99.3074 355.232 99.3074 354.402 99.3108C353.887 99.3097 353.371 99.3094 352.841 99.3089C352.364 99.3083 351.888 99.3075 351.398 99.3069C350.284 99.2326 350.284 99.2317 349.708 98.6555C349.573 97.5903 349.469 96.5208 349.384 95.4505C349.335 94.8675 349.288 94.2847 349.238 93.6839C349.203 93.2334 349.167 92.7819 349.132 92.3176C348.921 92.5688 348.71 92.8198 348.493 93.0784C343.77 98.2732 337.507 100.736 330.615 101.105C323.819 101.347 317.571 100.701 312.113 96.221C307.642 91.6905 306.026 86.6111 305.739 80.3626C305.816 75.2761 307.682 71.0231 311.192 67.3782C319.013 60.12 329.061 60.9038 339.128 61.1135C342.766 61.2847 346.207 61.9327 349.708 62.9329C349.201 56.9769 349.201 56.9763 346.251 51.9856C340.516 47.6783 334.169 48.0043 327.237 48.5286C324.162 49.1549 321.485 50.0445 318.883 51.8128C317.442 52.5623 317.442 52.5625 315.926 52.6253C314.562 51.9863 314.561 51.9861 313.63 50.2669C313.391 49.5507 313.152 48.8344 312.905 48.0969C312.657 47.3871 312.409 46.6767 312.153 45.9456C311.426 42.8291 311.426 42.8285 312.257 41.0383C313.581 40.1713 314.709 39.5617 316.146 38.9505C316.54 38.7782 316.934 38.6064 317.341 38.429ZM336.132 70.3157C330.386 70.3111 325.334 71.1742 321.115 75.3928C319.975 78.1906 319.962 80.6959 320.323 83.6751C321.059 85.7901 322.24 86.8296 323.996 88.1409C327.44 90.1725 331.77 90.3987 335.666 89.7678C336.355 89.6008 336.356 89.6004 337.032 89.4368C341.414 88.4694 344.443 86.4793 347.403 83.0989C349.885 79.449 349.998 75.8811 349.708 71.5755C345.629 70.8408 341.647 70.351 337.506 70.3147C337.038 70.3147 336.584 70.3157 336.132 70.3157Z" fill="#424A53"/>
<path d="M277.11 15.1111C278.055 15.4441 278.055 15.4441 279.018 15.7841C282.747 17.2239 285.993 19.0849 289.21 21.449C288.95 24.8029 288.014 26.9698 286.185 29.7677C285.964 30.1342 285.743 30.5006 285.516 30.878C283.862 33.4535 283.862 33.4535 281.987 33.8839C280.376 33.5036 279.471 32.962 278.154 31.9641C271.556 27.3167 263.745 25.6176 255.77 26.8102C250.662 27.7534 246.198 29.3097 241.964 32.3962C241.37 32.8001 240.775 33.2046 240.163 33.6206C234.742 38.4408 231.527 45.9887 231.016 53.1384C230.98 53.6126 230.944 54.0862 230.906 54.5742C230.523 63.702 233.255 72.4661 239.479 79.2465C246.027 85.2911 253.637 87.5215 262.429 87.2967C267.694 86.8658 272.309 85.4346 277.027 83.0924C278.262 82.5232 278.262 82.5232 279.415 82.5232C279.415 76.6289 279.415 70.7347 279.415 64.6619C277.966 64.6688 276.517 64.6751 275.024 64.682C273.626 64.6866 272.228 64.6901 270.83 64.6935C269.856 64.6964 268.882 64.7004 267.908 64.7056C266.511 64.7125 265.114 64.7154 263.716 64.7183C263.059 64.7224 263.059 64.7223 262.389 64.7269C261.342 64.7275 260.295 64.6976 259.249 64.6619C257.958 63.3712 258.566 60.3815 258.564 58.6483C258.557 58.1384 258.55 57.6285 258.543 57.103C258.542 56.6156 258.541 56.1276 258.539 55.6252C258.537 55.1763 258.535 54.7275 258.533 54.2648C258.673 53.1384 258.673 53.1384 259.825 51.9861C261.203 51.8397 261.203 51.8397 262.952 51.8369C263.606 51.8334 264.26 51.8299 264.933 51.8259C265.996 51.8293 265.996 51.8294 267.081 51.8328C268.168 51.8317 268.168 51.8317 269.277 51.8299C270.811 51.8288 272.346 51.8305 273.88 51.8357C275.849 51.8426 277.817 51.8386 279.786 51.8317C281.661 51.8265 283.536 51.8305 285.41 51.8328C286.119 51.8305 286.828 51.8282 287.558 51.8259C288.539 51.8316 288.539 51.8317 289.539 51.8369C290.117 51.838 290.694 51.8386 291.289 51.8397C292.667 51.9861 292.667 51.9861 293.819 53.1384C293.992 54.5587 293.992 54.5587 294.032 56.3696C294.049 57.0466 294.066 57.7242 294.082 58.4213C294.093 59.1571 294.103 59.8929 294.114 60.6511C294.124 61.4059 294.135 62.1607 294.146 62.9385C294.166 64.5397 294.18 66.1409 294.191 67.7421C294.207 69.7846 294.252 71.826 294.305 73.8679C294.347 75.824 294.354 77.7801 294.366 79.7368C294.389 80.4657 294.412 81.1945 294.436 81.9453C294.412 86.9315 294.412 86.9315 292.697 89.1797C291.395 90.3556 290.098 91.3553 288.634 92.3181C288.289 92.5595 287.944 92.8004 287.589 93.0487C276.16 100.643 261.993 102.811 248.552 100.605C238.005 98.0775 228.459 91.4723 222.374 82.5232C215.494 71.1876 213.229 58.0146 216.324 45C220.212 33.022 227.43 23.3302 238.635 17.3167C250.245 11.4518 264.889 10.769 277.11 15.1111Z" fill="#424B53"/>
</svg>
